<svg xmlns="http://www.w3.org/2000/svg" xmlns:xlink="http://www.w3.org/1999/xlink" width="500" zoomAndPan="magnify" viewBox="0 0 375 149.999998" height="200" preserveAspectRatio="xMidYMid meet" version="1.2"><defs><clipPath id="c554bee120"><path d="M 7.425781 108 L 91.425781 108 L 91.425781 149 L 7.425781 149 Z M 7.425781 108 "/></clipPath></defs><g id="deca1d9f01"><path style=" stroke:none;fill-rule:evenodd;fill:#1865c1;fill-opacity:1;" d="M 37.328125 44.636719 C 40.085938 44.441406 47.734375 44.144531 48.496094 46.640625 C 49.183594 48.90625 45.660156 54.375 42.984375 54.320312 L 37.246094 54.195312 C 35.800781 54.164062 33.941406 47.527344 36.492188 45.015625 C 36.726562 44.785156 37 44.660156 37.328125 44.636719 Z M 38.6875 48.003906 C 38.554688 48.757812 38.699219 49.953125 38.929688 50.796875 L 42.800781 50.878906 C 43.445312 50.519531 44.382812 49.242188 44.863281 48.234375 C 43.242188 47.910156 40.457031 47.929688 38.6875 48.003906 Z M 38.6875 48.003906 "/><path style=" stroke:none;fill-rule:evenodd;fill:#1865c1;fill-opacity:1;" d="M 61.617188 44.636719 C 58.859375 44.441406 51.210938 44.144531 50.453125 46.640625 C 49.761719 48.90625 53.285156 54.375 55.960938 54.320312 L 61.703125 54.195312 C 63.144531 54.164062 65.003906 47.527344 62.453125 45.015625 C 62.21875 44.785156 61.945312 44.660156 61.617188 44.636719 Z M 60.257812 48.003906 C 58.492188 47.929688 55.703125 47.910156 54.085938 48.234375 C 54.5625 49.242188 55.5 50.519531 56.144531 50.878906 L 60.019531 50.796875 C 60.246094 49.953125 60.390625 48.757812 60.257812 48.003906 Z M 60.257812 48.003906 "/><path style=" stroke:none;fill-rule:nonzero;fill:#1865c1;fill-opacity:1;" d="M 47.664062 46.3125 L 51.285156 46.3125 L 51.285156 49.746094 L 47.664062 49.746094 Z M 47.664062 46.3125 "/><path style=" stroke:none;fill-rule:nonzero;fill:#1865c1;fill-opacity:1;" d="M 60.652344 46.195312 L 65.460938 41.628906 L 67.820312 44.097656 L 63.011719 48.664062 Z M 60.652344 46.195312 "/><path style=" stroke:none;fill-rule:nonzero;fill:#1865c1;fill-opacity:1;" d="M 35.933594 48.664062 L 31.125 44.097656 L 33.488281 41.628906 L 38.296875 46.195312 Z M 35.933594 48.664062 "/><g clip-rule="nonzero" clip-path="url(#c554bee120)"><path style=" stroke:none;fill-rule:evenodd;fill:#1865c1;fill-opacity:1;" d="M 14.859375 148.800781 L 7.910156 113.074219 C 7.472656 110.824219 9.777344 108.90625 12.054688 108.90625 L 86.890625 108.90625 C 89.171875 108.90625 91.472656 110.828125 91.035156 113.074219 L 84.085938 148.800781 Z M 37.882812 138.582031 L 27.175781 128.855469 L 37.882812 119.125 L 41.304688 122.925781 L 34.78125 128.855469 L 41.304688 134.78125 Z M 57.640625 134.78125 L 64.164062 128.855469 L 57.640625 122.925781 L 61.0625 119.125 L 71.773438 128.855469 L 61.0625 138.582031 Z M 57.640625 134.78125 "/></g><path style=" stroke:none;fill-rule:evenodd;fill:#db4437;fill-opacity:1;" d="M 33.683594 80.015625 C 20.558594 86.050781 12.257812 87.726562 9.859375 105.800781 C 10.570312 105.589844 11.308594 105.476562 12.054688 105.476562 L 86.890625 105.476562 C 87.636719 105.476562 88.378906 105.589844 89.085938 105.800781 C 86.6875 87.722656 78.386719 86.054688 65.261719 80.015625 C 61.421875 85.359375 55.671875 88.585938 49.472656 88.585938 C 43.277344 88.585938 37.523438 85.359375 33.683594 80.015625 Z M 33.683594 80.015625 "/><path style=" stroke:none;fill-rule:evenodd;fill:#db4437;fill-opacity:1;" d="M 71.5 43.90625 C 77.308594 28.953125 73.5 19.550781 60.082031 15.699219 C 57.847656 6.894531 50.078125 3.640625 36.765625 5.9375 C 36.800781 6.988281 36.917969 11.167969 38.867188 15.699219 C 25.445312 19.554688 21.640625 28.953125 27.445312 43.90625 C 35.636719 40.789062 40.433594 37.980469 41.847656 30.574219 C 54.210938 41.019531 62.238281 30.222656 71.5 43.90625 Z M 71.5 43.90625 "/><path style=" stroke:none;fill-rule:nonzero;fill:#db4437;fill-opacity:1;" d="M 70.132812 36.417969 L 70.132812 58.015625 C 70.132812 69.816406 60.519531 76.5625 49.472656 76.5625 C 38.425781 76.5625 28.816406 69.816406 28.816406 58.015625 L 28.816406 36.417969 L 33.625 36.417969 L 33.625 58.015625 C 33.625 67.101562 41.128906 71.730469 49.472656 71.730469 C 57.820312 71.730469 65.324219 67.101562 65.324219 58.015625 L 65.324219 36.417969 Z M 70.132812 36.417969 "/><path style=" stroke:none;fill-rule:evenodd;fill:#db4437;fill-opacity:1;" d="M 22.847656 47.3125 C 22.847656 51.425781 25.371094 54.8125 28.605469 55.222656 C 28.675781 55.234375 28.949219 55.242188 29.289062 55.246094 L 29.289062 42.164062 C 29.28125 42.167969 29.273438 42.171875 29.265625 42.175781 C 28.90625 41.246094 28.582031 40.335938 28.289062 39.449219 C 25.207031 40.03125 22.847656 43.332031 22.847656 47.3125 Z M 22.847656 47.3125 "/><path style=" stroke:none;fill-rule:evenodd;fill:#db4437;fill-opacity:1;" d="M 69.65625 42.140625 L 69.65625 55.261719 C 69.847656 55.257812 69.984375 55.257812 70.015625 55.253906 C 73.40625 55.039062 76.097656 51.5625 76.097656 47.308594 C 76.097656 43.328125 73.738281 40.03125 70.660156 39.445312 C 70.367188 40.335938 70.039062 41.246094 69.679688 42.171875 C 69.671875 42.164062 69.664062 42.152344 69.65625 42.140625 Z M 69.65625 42.140625 "/><g style="fill:#000000;fill-opacity:1;"><g transform="translate(108.39647, 127.860045)"><path style="stroke:none" d="M 8.859375 0 L 0.96875 -18.828125 L 5.203125 -18.828125 L 11.328125 -4.296875 L 10.46875 -4.296875 L 17.0625 -18.828125 L 20.21875 -18.828125 L 26.8125 -4.296875 L 25.984375 -4.296875 L 32.125 -18.828125 L 36.125 -18.828125 L 28.203125 0 L 24.671875 0 L 18.34375 -13.71875 L 18.71875 -13.71875 L 12.34375 0 Z M 8.859375 0 "/></g></g><g style="fill:#000000;fill-opacity:1;"><g transform="translate(145.460104, 127.860045)"><path style="stroke:none" d="M 10.4375 0.265625 C 8.582031 0.265625 6.984375 -0.00390625 5.640625 -0.546875 C 4.296875 -1.085938 3.269531 -1.867188 2.5625 -2.890625 C 1.851562 -3.921875 1.5 -5.128906 1.5 -6.515625 C 1.5 -7.890625 1.835938 -9.09375 2.515625 -10.125 C 3.191406 -11.15625 4.148438 -11.96875 5.390625 -12.5625 C 6.640625 -13.15625 8.09375 -13.453125 9.75 -13.453125 C 11.289062 -13.453125 12.628906 -13.179688 13.765625 -12.640625 C 14.898438 -12.097656 15.769531 -11.320312 16.375 -10.3125 C 16.988281 -9.3125 17.296875 -8.109375 17.296875 -6.703125 L 17.296875 -5.640625 L 4.484375 -5.640625 L 4.484375 -7.875 L 14.640625 -7.875 L 14.046875 -7.34375 C 14.023438 -8.519531 13.65625 -9.398438 12.9375 -9.984375 C 12.21875 -10.578125 11.179688 -10.875 9.828125 -10.875 C 8.828125 -10.875 7.976562 -10.71875 7.28125 -10.40625 C 6.59375 -10.101562 6.0625 -9.660156 5.6875 -9.078125 C 5.3125 -8.503906 5.125 -7.800781 5.125 -6.96875 L 5.125 -6.703125 C 5.125 -5.816406 5.316406 -5.066406 5.703125 -4.453125 C 6.085938 -3.847656 6.679688 -3.390625 7.484375 -3.078125 C 8.296875 -2.765625 9.363281 -2.609375 10.6875 -2.609375 C 11.75 -2.609375 12.734375 -2.710938 13.640625 -2.921875 C 14.546875 -3.128906 15.3125 -3.445312 15.9375 -3.875 L 16.953125 -1.328125 C 16.273438 -0.835938 15.347656 -0.445312 14.171875 -0.15625 C 13.003906 0.125 11.757812 0.265625 10.4375 0.265625 Z M 10.4375 0.265625 "/></g></g><g style="fill:#000000;fill-opacity:1;"><g transform="translate(163.99192, 127.860045)"><path style="stroke:none" d="M 11.71875 0.265625 C 10.40625 0.265625 9.226562 0.0078125 8.1875 -0.5 C 7.144531 -1.019531 6.363281 -1.753906 5.84375 -2.703125 L 6.03125 -2.703125 L 6.03125 0 L 2.4375 0 L 2.4375 -18.828125 L 6.21875 -18.828125 L 6.21875 -10.59375 L 5.984375 -10.59375 C 6.484375 -11.46875 7.238281 -12.160156 8.25 -12.671875 C 9.257812 -13.191406 10.425781 -13.453125 11.75 -13.453125 C 13.226562 -13.453125 14.507812 -13.160156 15.59375 -12.578125 C 16.675781 -11.992188 17.519531 -11.1875 18.125 -10.15625 C 18.738281 -9.132812 19.046875 -7.945312 19.046875 -6.59375 C 19.046875 -5.238281 18.738281 -4.046875 18.125 -3.015625 C 17.519531 -1.984375 16.664062 -1.175781 15.5625 -0.59375 C 14.457031 -0.0195312 13.175781 0.265625 11.71875 0.265625 Z M 10.703125 -2.609375 C 12.128906 -2.609375 13.238281 -2.972656 14.03125 -3.703125 C 14.820312 -4.441406 15.21875 -5.40625 15.21875 -6.59375 C 15.21875 -7.800781 14.820312 -8.765625 14.03125 -9.484375 C 13.238281 -10.210938 12.125 -10.578125 10.6875 -10.578125 C 9.257812 -10.578125 8.148438 -10.210938 7.359375 -9.484375 C 6.566406 -8.765625 6.171875 -7.800781 6.171875 -6.59375 C 6.171875 -5.40625 6.566406 -4.441406 7.359375 -3.703125 C 8.148438 -2.972656 9.265625 -2.609375 10.703125 -2.609375 Z M 10.703125 -2.609375 "/></g></g><g style="fill:#000000;fill-opacity:1;"><g transform="translate(184.526462, 127.860045)"><path style="stroke:none" d=""/></g></g><g style="fill:#000000;fill-opacity:1;"><g transform="translate(193.578756, 127.860045)"><path style="stroke:none" d="M 2.828125 0 L 2.828125 -18.828125 L 11.78125 -18.828125 C 14.351562 -18.828125 16.515625 -18.46875 18.265625 -17.75 C 20.023438 -17.039062 21.347656 -15.988281 22.234375 -14.59375 C 23.128906 -13.195312 23.578125 -11.472656 23.578125 -9.421875 C 23.578125 -7.378906 23.125 -5.65625 22.21875 -4.25 C 21.320312 -2.84375 20 -1.78125 18.25 -1.0625 C 16.507812 -0.351562 14.351562 0 11.78125 0 Z M 6.8125 -3.203125 L 11.53125 -3.203125 C 14.269531 -3.203125 16.273438 -3.695312 17.546875 -4.6875 C 18.828125 -5.675781 19.46875 -7.253906 19.46875 -9.421875 C 19.46875 -11.578125 18.828125 -13.148438 17.546875 -14.140625 C 16.273438 -15.128906 14.269531 -15.625 11.53125 -15.625 L 6.8125 -15.625 Z M 6.8125 -3.203125 "/></g></g><g style="fill:#000000;fill-opacity:1;"><g transform="translate(219.160142, 127.860045)"><path style="stroke:none" d="M 10.4375 0.265625 C 8.582031 0.265625 6.984375 -0.00390625 5.640625 -0.546875 C 4.296875 -1.085938 3.269531 -1.867188 2.5625 -2.890625 C 1.851562 -3.921875 1.5 -5.128906 1.5 -6.515625 C 1.5 -7.890625 1.835938 -9.09375 2.515625 -10.125 C 3.191406 -11.15625 4.148438 -11.96875 5.390625 -12.5625 C 6.640625 -13.15625 8.09375 -13.453125 9.75 -13.453125 C 11.289062 -13.453125 12.628906 -13.179688 13.765625 -12.640625 C 14.898438 -12.097656 15.769531 -11.320312 16.375 -10.3125 C 16.988281 -9.3125 17.296875 -8.109375 17.296875 -6.703125 L 17.296875 -5.640625 L 4.484375 -5.640625 L 4.484375 -7.875 L 14.640625 -7.875 L 14.046875 -7.34375 C 14.023438 -8.519531 13.65625 -9.398438 12.9375 -9.984375 C 12.21875 -10.578125 11.179688 -10.875 9.828125 -10.875 C 8.828125 -10.875 7.976562 -10.71875 7.28125 -10.40625 C 6.59375 -10.101562 6.0625 -9.660156 5.6875 -9.078125 C 5.3125 -8.503906 5.125 -7.800781 5.125 -6.96875 L 5.125 -6.703125 C 5.125 -5.816406 5.316406 -5.066406 5.703125 -4.453125 C 6.085938 -3.847656 6.679688 -3.390625 7.484375 -3.078125 C 8.296875 -2.765625 9.363281 -2.609375 10.6875 -2.609375 C 11.75 -2.609375 12.734375 -2.710938 13.640625 -2.921875 C 14.546875 -3.128906 15.3125 -3.445312 15.9375 -3.875 L 16.953125 -1.328125 C 16.273438 -0.835938 15.347656 -0.445312 14.171875 -0.15625 C 13.003906 0.125 11.757812 0.265625 10.4375 0.265625 Z M 10.4375 0.265625 "/></g></g><g style="fill:#000000;fill-opacity:1;"><g transform="translate(237.691958, 127.860045)"><path style="stroke:none" d="M 7.078125 0 L 0.03125 -13.1875 L 4.140625 -13.1875 L 9.34375 -3.078125 L 8.546875 -3.078125 L 13.71875 -13.1875 L 17.625 -13.1875 L 10.59375 0 Z M 7.078125 0 "/></g></g><g style="fill:#000000;fill-opacity:1;"><g transform="translate(255.36927, 127.860045)"><path style="stroke:none" d="M 10.4375 0.265625 C 8.582031 0.265625 6.984375 -0.00390625 5.640625 -0.546875 C 4.296875 -1.085938 3.269531 -1.867188 2.5625 -2.890625 C 1.851562 -3.921875 1.5 -5.128906 1.5 -6.515625 C 1.5 -7.890625 1.835938 -9.09375 2.515625 -10.125 C 3.191406 -11.15625 4.148438 -11.96875 5.390625 -12.5625 C 6.640625 -13.15625 8.09375 -13.453125 9.75 -13.453125 C 11.289062 -13.453125 12.628906 -13.179688 13.765625 -12.640625 C 14.898438 -12.097656 15.769531 -11.320312 16.375 -10.3125 C 16.988281 -9.3125 17.296875 -8.109375 17.296875 -6.703125 L 17.296875 -5.640625 L 4.484375 -5.640625 L 4.484375 -7.875 L 14.640625 -7.875 L 14.046875 -7.34375 C 14.023438 -8.519531 13.65625 -9.398438 12.9375 -9.984375 C 12.21875 -10.578125 11.179688 -10.875 9.828125 -10.875 C 8.828125 -10.875 7.976562 -10.71875 7.28125 -10.40625 C 6.59375 -10.101562 6.0625 -9.660156 5.6875 -9.078125 C 5.3125 -8.503906 5.125 -7.800781 5.125 -6.96875 L 5.125 -6.703125 C 5.125 -5.816406 5.316406 -5.066406 5.703125 -4.453125 C 6.085938 -3.847656 6.679688 -3.390625 7.484375 -3.078125 C 8.296875 -2.765625 9.363281 -2.609375 10.6875 -2.609375 C 11.75 -2.609375 12.734375 -2.710938 13.640625 -2.921875 C 14.546875 -3.128906 15.3125 -3.445312 15.9375 -3.875 L 16.953125 -1.328125 C 16.273438 -0.835938 15.347656 -0.445312 14.171875 -0.15625 C 13.003906 0.125 11.757812 0.265625 10.4375 0.265625 Z M 10.4375 0.265625 "/></g></g><g style="fill:#000000;fill-opacity:1;"><g transform="translate(273.901087, 127.860045)"><path style="stroke:none" d="M 7.875 0.265625 C 6.082031 0.265625 4.71875 -0.164062 3.78125 -1.03125 C 2.84375 -1.90625 2.375 -3.164062 2.375 -4.8125 L 2.375 -18.828125 L 6.1875 -18.828125 L 6.1875 -5.09375 C 6.1875 -4.601562 6.285156 -4.179688 6.484375 -3.828125 C 6.679688 -3.484375 6.972656 -3.21875 7.359375 -3.03125 C 7.753906 -2.84375 8.226562 -2.75 8.78125 -2.75 C 9.03125 -2.75 9.296875 -2.757812 9.578125 -2.78125 C 9.867188 -2.8125 10.117188 -2.851562 10.328125 -2.90625 L 10.359375 -0.046875 C 9.960938 0.0546875 9.566406 0.132812 9.171875 0.1875 C 8.773438 0.238281 8.34375 0.265625 7.875 0.265625 Z M 7.875 0.265625 "/></g></g><g style="fill:#000000;fill-opacity:1;"><g transform="translate(284.555542, 127.860045)"><path style="stroke:none" d="M 9.796875 0.265625 C 8.066406 0.265625 6.578125 -0.0234375 5.328125 -0.609375 C 4.085938 -1.203125 3.140625 -2.015625 2.484375 -3.046875 C 1.828125 -4.078125 1.5 -5.257812 1.5 -6.59375 C 1.5 -7.945312 1.828125 -9.132812 2.484375 -10.15625 C 3.140625 -11.1875 4.085938 -11.992188 5.328125 -12.578125 C 6.578125 -13.160156 8.066406 -13.453125 9.796875 -13.453125 C 11.554688 -13.453125 13.050781 -13.160156 14.28125 -12.578125 C 15.507812 -11.992188 16.453125 -11.1875 17.109375 -10.15625 C 17.773438 -9.132812 18.109375 -7.945312 18.109375 -6.59375 C 18.109375 -5.257812 17.78125 -4.078125 17.125 -3.046875 C 16.476562 -2.015625 15.535156 -1.203125 14.296875 -0.609375 C 13.054688 -0.0234375 11.554688 0.265625 9.796875 0.265625 Z M 9.796875 -2.671875 C 11.242188 -2.671875 12.359375 -3.035156 13.140625 -3.765625 C 13.921875 -4.492188 14.3125 -5.445312 14.3125 -6.625 C 14.3125 -7.800781 13.921875 -8.738281 13.140625 -9.4375 C 12.359375 -10.144531 11.242188 -10.5 9.796875 -10.5 C 8.359375 -10.5 7.242188 -10.144531 6.453125 -9.4375 C 5.671875 -8.738281 5.28125 -7.800781 5.28125 -6.625 C 5.28125 -5.445312 5.671875 -4.492188 6.453125 -3.765625 C 7.242188 -3.035156 8.359375 -2.671875 9.796875 -2.671875 Z M 9.796875 -2.671875 "/></g></g><g style="fill:#000000;fill-opacity:1;"><g transform="translate(304.155466, 127.860045)"><path style="stroke:none" d="M 2.4375 4.8125 L 2.4375 -13.1875 L 6.09375 -13.1875 L 6.09375 -10.578125 L 5.875 -10.578125 C 6.28125 -11.484375 6.988281 -12.1875 8 -12.6875 C 9.019531 -13.195312 10.222656 -13.453125 11.609375 -13.453125 C 13.140625 -13.453125 14.457031 -13.160156 15.5625 -12.578125 C 16.664062 -11.992188 17.515625 -11.191406 18.109375 -10.171875 C 18.710938 -9.160156 19.015625 -7.96875 19.015625 -6.59375 C 19.015625 -5.257812 18.710938 -4.078125 18.109375 -3.046875 C 17.515625 -2.015625 16.675781 -1.203125 15.59375 -0.609375 C 14.507812 -0.0234375 13.191406 0.265625 11.640625 0.265625 C 10.253906 0.265625 9.066406 0.015625 8.078125 -0.484375 C 7.085938 -0.992188 6.398438 -1.675781 6.015625 -2.53125 L 6.21875 -2.53125 L 6.21875 4.8125 Z M 10.6875 -2.609375 C 12.101562 -2.609375 13.207031 -2.976562 14 -3.71875 C 14.789062 -4.457031 15.1875 -5.425781 15.1875 -6.625 C 15.1875 -7.8125 14.789062 -8.765625 14 -9.484375 C 13.207031 -10.210938 12.101562 -10.578125 10.6875 -10.578125 C 9.257812 -10.578125 8.148438 -10.210938 7.359375 -9.484375 C 6.566406 -8.765625 6.171875 -7.8125 6.171875 -6.625 C 6.171875 -5.425781 6.566406 -4.457031 7.359375 -3.71875 C 8.148438 -2.976562 9.257812 -2.609375 10.6875 -2.609375 Z M 10.6875 -2.609375 "/></g></g><g style="fill:#000000;fill-opacity:1;"><g transform="translate(324.663295, 127.860045)"><path style="stroke:none" d="M 10.4375 0.265625 C 8.582031 0.265625 6.984375 -0.00390625 5.640625 -0.546875 C 4.296875 -1.085938 3.269531 -1.867188 2.5625 -2.890625 C 1.851562 -3.921875 1.5 -5.128906 1.5 -6.515625 C 1.5 -7.890625 1.835938 -9.09375 2.515625 -10.125 C 3.191406 -11.15625 4.148438 -11.96875 5.390625 -12.5625 C 6.640625 -13.15625 8.09375 -13.453125 9.75 -13.453125 C 11.289062 -13.453125 12.628906 -13.179688 13.765625 -12.640625 C 14.898438 -12.097656 15.769531 -11.320312 16.375 -10.3125 C 16.988281 -9.3125 17.296875 -8.109375 17.296875 -6.703125 L 17.296875 -5.640625 L 4.484375 -5.640625 L 4.484375 -7.875 L 14.640625 -7.875 L 14.046875 -7.34375 C 14.023438 -8.519531 13.65625 -9.398438 12.9375 -9.984375 C 12.21875 -10.578125 11.179688 -10.875 9.828125 -10.875 C 8.828125 -10.875 7.976562 -10.71875 7.28125 -10.40625 C 6.59375 -10.101562 6.0625 -9.660156 5.6875 -9.078125 C 5.3125 -8.503906 5.125 -7.800781 5.125 -6.96875 L 5.125 -6.703125 C 5.125 -5.816406 5.316406 -5.066406 5.703125 -4.453125 C 6.085938 -3.847656 6.679688 -3.390625 7.484375 -3.078125 C 8.296875 -2.765625 9.363281 -2.609375 10.6875 -2.609375 C 11.75 -2.609375 12.734375 -2.710938 13.640625 -2.921875 C 14.546875 -3.128906 15.3125 -3.445312 15.9375 -3.875 L 16.953125 -1.328125 C 16.273438 -0.835938 15.347656 -0.445312 14.171875 -0.15625 C 13.003906 0.125 11.757812 0.265625 10.4375 0.265625 Z M 10.4375 0.265625 "/></g></g><g style="fill:#000000;fill-opacity:1;"><g transform="translate(343.195112, 127.860045)"><path style="stroke:none" d="M 2.4375 0 L 2.4375 -13.1875 L 5.984375 -13.1875 L 5.984375 -9.875 L 5.796875 -9.875 C 6.171875 -10.96875 6.835938 -11.804688 7.796875 -12.390625 C 8.753906 -12.972656 9.9375 -13.3125 11.34375 -13.40625 L 12.765625 -13.515625 L 13.0625 -10.234375 L 10.625 -10.015625 C 9.164062 -9.890625 8.078125 -9.535156 7.359375 -8.953125 C 6.640625 -8.378906 6.28125 -7.617188 6.28125 -6.671875 L 6.28125 0 Z M 2.4375 0 "/></g></g><g style="fill:#1865c1;fill-opacity:1;"><g transform="translate(104.429633, 91.059754)"><path style="stroke:none" d="M 3.140625 -1 L 3.140625 -49.296875 C 3.140625 -49.960938 3.476562 -50.296875 4.15625 -50.296875 L 19.234375 -50.296875 C 22.210938 -50.296875 24.46875 -49.519531 26 -47.96875 C 27.53125 -46.414062 28.296875 -44.15625 28.296875 -41.1875 L 28.296875 -9.046875 C 28.296875 -6.117188 27.53125 -3.878906 26 -2.328125 C 24.46875 -0.773438 22.210938 0 19.234375 0 L 4.15625 0 C 3.476562 0 3.140625 -0.332031 3.140625 -1 Z M 11.6875 -8.296875 L 17.484375 -8.296875 C 19.160156 -8.296875 20 -9.132812 20 -10.8125 L 20 -39.421875 C 20 -41.140625 19.160156 -42 17.484375 -42 L 11.6875 -42 Z M 11.6875 -8.296875 "/></g></g><g style="fill:#1865c1;fill-opacity:1;"><g transform="translate(135.869353, 91.059754)"><path style="stroke:none" d=""/></g></g><g style="fill:#1865c1;fill-opacity:1;"><g transform="translate(151.589202, 91.059754)"><path style="stroke:none" d="M 19.75 -29.296875 L 19.75 -49.296875 C 19.75 -49.960938 20.082031 -50.296875 20.75 -50.296875 L 27.21875 -50.296875 C 27.9375 -50.296875 28.296875 -49.960938 28.296875 -49.296875 L 28.296875 -1 C 28.296875 -0.332031 27.9375 0 27.21875 0 L 20.75 0 C 20.082031 0 19.75 -0.332031 19.75 -1 L 19.75 -21 L 11.6875 -21 L 11.6875 -1 C 11.6875 -0.332031 11.351562 0 10.6875 0 L 4.21875 0 C 3.5 0 3.140625 -0.332031 3.140625 -1 L 3.140625 -49.296875 C 3.140625 -49.960938 3.5 -50.296875 4.21875 -50.296875 L 10.6875 -50.296875 C 11.351562 -50.296875 11.6875 -49.960938 11.6875 -49.296875 L 11.6875 -29.296875 Z M 19.75 -29.296875 "/></g></g><g style="fill:#1865c1;fill-opacity:1;"><g transform="translate(183.028922, 91.059754)"><path style="stroke:none" d=""/></g></g><g style="fill:#1865c1;fill-opacity:1;"><g transform="translate(198.748772, 91.059754)"><path style="stroke:none" d="M 37.53125 -50.296875 L 43.515625 -50.296875 C 44.390625 -50.296875 44.785156 -49.859375 44.703125 -48.984375 L 39.296875 -1.1875 C 39.253906 -0.394531 38.8125 0 37.96875 0 L 31.8125 0 C 31.101562 0 30.644531 -0.375 30.4375 -1.125 L 23.890625 -29.546875 L 17.296875 -1.0625 C 17.078125 -0.351562 16.613281 0 15.90625 0 L 9.625 0 C 8.78125 0 8.335938 -0.394531 8.296875 -1.1875 L 3.140625 -48.984375 C 3.054688 -49.859375 3.457031 -50.296875 4.34375 -50.296875 L 10.3125 -50.296875 C 11.101562 -50.296875 11.539062 -49.898438 11.625 -49.109375 L 14.078125 -19.6875 L 14.390625 -19.6875 L 20.625 -49.171875 C 20.832031 -49.921875 21.289062 -50.296875 22 -50.296875 L 25.78125 -50.296875 C 26.53125 -50.296875 26.988281 -49.921875 27.15625 -49.171875 L 33.328125 -19.6875 L 33.640625 -19.6875 L 36.21875 -49.109375 C 36.300781 -49.898438 36.738281 -50.296875 37.53125 -50.296875 Z M 37.53125 -50.296875 "/></g></g><g style="fill:#1865c1;fill-opacity:1;"><g transform="translate(246.600006, 91.059754)"><path style="stroke:none" d="M 33.453125 0 L 26.78125 0 C 26.238281 0 25.90625 -0.289062 25.78125 -0.875 L 24.015625 -10.0625 L 12.828125 -10.0625 L 11.125 -0.875 C 11 -0.289062 10.664062 0 10.125 0 L 3.390625 0 C 2.640625 0 2.367188 -0.351562 2.578125 -1.0625 L 13.015625 -49.421875 C 13.140625 -50.003906 13.492188 -50.296875 14.078125 -50.296875 L 22.828125 -50.296875 C 23.410156 -50.296875 23.765625 -50.003906 23.890625 -49.421875 L 34.328125 -1.0625 C 34.453125 -0.351562 34.160156 0 33.453125 0 Z M 22.453125 -17.359375 L 18.421875 -39.296875 L 14.390625 -17.359375 Z M 22.453125 -17.359375 "/></g></g><g style="fill:#1865c1;fill-opacity:1;"><g transform="translate(283.44734, 91.059754)"><path style="stroke:none" d="M 11.6875 -8.296875 L 11.6875 -49.296875 C 11.6875 -49.960938 11.351562 -50.296875 10.6875 -50.296875 L 4.15625 -50.296875 C 3.476562 -50.296875 3.140625 -49.960938 3.140625 -49.296875 L 3.140625 -1 C 3.140625 -0.332031 3.476562 0 4.15625 0 L 26.65625 0 C 27.332031 0 27.671875 -0.332031 27.671875 -1 L 27.671875 -7.296875 C 27.671875 -7.960938 27.332031 -8.296875 26.65625 -8.296875 Z M 11.6875 -8.296875 "/></g></g><g style="fill:#1865c1;fill-opacity:1;"><g transform="translate(314.25825, 91.059754)"><path style="stroke:none" d="M 4.15625 -50.296875 L 10.6875 -50.296875 C 11.351562 -50.296875 11.6875 -49.960938 11.6875 -49.296875 L 11.6875 -1 C 11.6875 -0.332031 11.351562 0 10.6875 0 L 4.15625 0 C 3.476562 0 3.140625 -0.332031 3.140625 -1 L 3.140625 -49.296875 C 3.140625 -49.960938 3.476562 -50.296875 4.15625 -50.296875 Z M 4.15625 -50.296875 "/></g></g><g style="fill:#1865c1;fill-opacity:1;"><g transform="translate(329.097803, 91.059754)"><path style="stroke:none" d="M 3.140625 -1 L 3.140625 -49.296875 C 3.140625 -49.960938 3.476562 -50.296875 4.15625 -50.296875 L 19.234375 -50.296875 C 22.210938 -50.296875 24.46875 -49.519531 26 -47.96875 C 27.53125 -46.414062 28.296875 -44.15625 28.296875 -41.1875 L 28.296875 -9.046875 C 28.296875 -6.117188 27.53125 -3.878906 26 -2.328125 C 24.46875 -0.773438 22.210938 0 19.234375 0 L 4.15625 0 C 3.476562 0 3.140625 -0.332031 3.140625 -1 Z M 11.6875 -8.296875 L 17.484375 -8.296875 C 19.160156 -8.296875 20 -9.132812 20 -10.8125 L 20 -39.421875 C 20 -41.140625 19.160156 -42 17.484375 -42 L 11.6875 -42 Z M 11.6875 -8.296875 "/></g></g></g></svg>